<?xml version="1.0"?>
<svg width="500" height="500" xmlns="http://www.w3.org/2000/svg" xmlns:svg="http://www.w3.org/2000/svg">
 <g class="layer">
  <title>Layer 1</title>
  <path class="ccustom" d="m468.94,159.21c-8.95,-20.36 -20.71,-39.49 -35.1,-56.52c-21.24,-25.98 -47.74,-47.21 -77.75,-62.13c-29.84,-15.09 -62.66,-23.52 -96.18,-24.92c-33.52,-1.4 -67.05,4.39 -98.12,16.67c-31.07,12.46 -59.33,31.42 -82.67,55.46c-23.17,24.22 -41.25,53.01 -52.48,84.42c-11.41,31.59 -15.97,65.12 -13.51,98.64c2.46,33.35 12.11,66 28.08,95.48c15.97,29.49 38.09,55.11 64.77,75.47c17.2,13.34 35.98,24.05 56.17,32.12c28.26,11.58 58.45,17.55 88.99,17.55c63.01,-0.18 123.39,-25.27 167.97,-69.86c44.41,-44.58 69.51,-104.96 69.51,-167.97c0,-32.47 -6.67,-64.59 -19.66,-94.43l0,0zm-217.99,-95.31c27.38,0 54.41,5.97 79.33,17.55l0,0c-6.14,2.63 -12.46,4.39 -18.96,5.44c-21.41,3.16 -41.42,13.16 -56.69,28.43c-15.27,15.27 -25.27,35.28 -28.43,56.69c-1.4,12.11 -6.85,23.17 -15.45,31.77c-8.78,8.42 -20.01,13.69 -32.12,14.74c-21.41,3.16 -41.42,13.16 -56.69,28.43c-15.27,15.27 -25.27,35.28 -28.43,56.69c-1.05,11.41 -5.97,22.29 -13.87,30.54l0,0c-13.69,-28.96 -19.83,-60.73 -17.9,-92.67c1.93,-31.94 11.94,-62.84 29.14,-89.87c17.03,-27.03 40.72,-49.32 68.8,-64.59c28.08,-15.45 59.5,-23.52 91.45,-23.52l-0.18,0.35zm-145.15,312.6c2.11,-1.93 4.21,-3.69 6.32,-5.79c15.62,-15.09 25.63,-35.1 28.43,-56.69c1.05,-12.11 6.49,-23.52 15.27,-31.94c8.42,-8.78 19.66,-14.04 31.77,-15.09c21.41,-3.16 41.42,-13.16 56.69,-28.43c15.27,-15.27 25.27,-35.28 28.43,-56.69c0.7,-12.64 6.14,-24.57 15.27,-33.52c8.6,-8.6 20.01,-13.69 32.12,-14.57c19.66,-2.63 38.09,-11.41 52.66,-25.1c16.5,13.69 30.54,30.19 41.42,48.79c-0.7,0.88 -1.4,1.76 -2.28,2.46c-8.42,8.78 -19.66,14.22 -31.77,15.45c-21.41,2.98 -41.42,12.99 -56.69,28.43c-15.45,15.27 -25.45,35.28 -28.43,56.69c-1.23,12.11 -6.67,23.34 -15.27,31.94c-8.6,8.6 -19.83,13.87 -31.94,15.09c-21.59,3.16 -41.42,12.99 -56.87,28.43c-15.45,15.27 -25.63,35.1 -28.79,56.69c-0.88,8.6 -3.86,16.85 -8.6,24.05c-18.08,-10.71 -34.05,-24.22 -47.74,-40.19l0,0zm145.15,67.75c-17.73,0 -35.45,-2.46 -52.66,-7.37c5.79,-10.88 9.65,-22.82 11.23,-35.1c1.23,-12.11 6.49,-23.34 15.09,-31.94c8.6,-8.42 19.83,-13.87 31.94,-15.09c21.59,-3.16 41.42,-12.99 56.87,-28.43c15.27,-15.27 25.27,-35.28 28.43,-56.69c1.23,-12.11 6.49,-23.34 15.09,-31.94c8.6,-8.42 19.83,-13.87 31.94,-15.09c16.15,-2.11 31.59,-8.07 44.93,-17.55c7.37,28.08 8.25,57.39 2.63,85.83c-5.79,28.43 -17.9,55.29 -35.63,78.28c-17.55,22.99 -40.37,41.6 -66.35,54.41c-25.98,12.99 -54.59,19.66 -83.55,19.83l0,0.88z" fill="#ffffff" id="svg_1"/>
 </g>
</svg>